# xmcd
#
# Track frame offsets:
#	150
#	13350
#	27452
#	40729
#	52419
#	66460
#	81477
#	97034
#	110624
#	123531
#	135145
#	148824
#	161801
#	173816
#	187263
#
# Disc length: 2665 seconds
#
# Revision: 0
# Processed by: cddbd v1.5.2PL0 Copyright (c) Steve Scherf et al.
# Submitted via: audiograbber 1.83.01
#
DISCID=eb0a670f
DTITLE=CB60015 - Hank Williams Chartbuster (CB)
DYEAR=1900
DGENRE=Karaoke
TTITLE0=Hank Williams - Cold Cold Heart (CB)
TTITLE1=Hank Williams - Hey Good Lookin' (CB)
TTITLE2=Hank Williams - Honky Tonkin' (CB)
TTITLE3=Hank Williams - I Can't Help It If I'm Still In Love With You (CB)
TTITLE4=Hank Williams - I'm So Lonesome I Could Cry (CB)
TTITLE5=Hank Williams - Jambalaya (CB)
TTITLE6=Hank Williams  - Kaw Liga (CB)
TTITLE7=Hank Williams - Lovesick Blues (CB)
TTITLE8=Hank Williams - Take These Chains From My Heart (CB)
TTITLE9=Hank Williams - Why Don't You Love Me (CB)
TTITLE10=Hank Williams - Your Cheatin' Heart (CB)
TTITLE11=Hank Williams - Long Gone Lonesome Blues (CB)
TTITLE12=Hank Williams - Moanin' The Blues (CB)
TTITLE13=Hank Williams - Move It On Over (CB)
TTITLE14=Hank Williams - My Bucket's Got A Hole In It (CB)
EXTD=
EXTT0=
EXTT1=
EXTT2=
EXTT3=
EXTT4=
EXTT5=
EXTT6=
EXTT7=
EXTT8=
EXTT9=
EXTT10=
EXTT11=
EXTT12=
EXTT13=
EXTT14=
PLAYORDER=
